 <!-- <svg t="1598427120085" class="icon" viewBox="0 0 1024 1024" version="1.1" xmlns="http://www.w3.org/2000/svg" p-id="887" width="40" height="40"><path d="M873.912757 1024H149.181355c-35.259449 0-63.945638-28.686189-63.945638-63.946853V64.798425C85.235717 29.537761 113.921906 0.851572 149.181355 0.851572h724.731402c35.260664 0 63.946853 28.686189 63.946853 63.946853V960.053147c0 35.260664-28.686189 63.946853-63.946853 63.946853z m-703.415379-85.26409H852.59552V86.113232H170.497378v852.622678z" p-id="888"></path><path d="M762.087156 316.459174H261.006956a5.247918 5.247918 0 0 1-5.247918-5.247918v-74.767039a5.247918 5.247918 0 0 1 5.247918-5.247918h501.078985a5.247918 5.247918 0 0 1 5.247918 5.247918v74.767039a5.247918 5.247918 0 0 1-5.246703 5.247918zM762.087156 799.836154H261.006956a5.247918 5.247918 0 0 1-5.247918-5.247918v-74.767039a5.247918 5.247918 0 0 1 5.247918-5.247918h501.078985a5.247918 5.247918 0 0 1 5.247918 5.247918v74.767039a5.247918 5.247918 0 0 1-5.246703 5.247918zM762.087156 558.147664H261.006956a5.247918 5.247918 0 0 1-5.247918-5.247918v-74.767039a5.247918 5.247918 0 0 1 5.247918-5.247918h501.078985a5.247918 5.247918 0 0 1 5.247918 5.247918v74.767039a5.247918 5.247918 0 0 1-5.246703 5.247918z" p-id="889"></path></svg> -->
 <svg t="1598595159287" class="icon" viewBox="0 0 1024 1024" version="1.1" xmlns="http://www.w3.org/2000/svg" p-id="3027" width="20" height="20"><path d="M826.91072 93.35808v837.5808H175.4624V93.35808h651.44832M847.40096 0.29184H154.97216c-40.08448 0-72.576 32.49152-72.576 72.576v878.55616c0 40.08448 32.49152 72.576 72.576 72.576h692.4288c40.08448 0 72.576-32.49152 72.576-72.576V72.86784c0-40.07936-32.49664-72.576-72.576-72.576z" p-id="3028"></path><path d="M244.3264 251.96032h509.93664v93.06624H244.3264zM244.3264 463.03232h509.93664v93.06624H244.3264zM244.3264 674.10432h337.48992v93.06624H244.3264z" p-id="3029"></path></svg>