
<!-- <svg t="1598435639065" class="icon" viewBox="0 0 1024 1024" version="1.1" xmlns="http://www.w3.org/2000/svg" p-id="2132" width="40" height="40"><path d="M930.90816 93.16864v651.63264H93.09696V93.16864h837.8112M999.84384 0.0768H24.16128A24.15104 24.15104 0 0 0 0.00512 24.22784v789.504a24.15616 24.15616 0 0 0 24.15616 24.15616h975.68256a24.15616 24.15616 0 0 0 24.15616-24.15616V24.22784a24.15104 24.15104 0 0 0-24.15616-24.15104zM814.54592 1023.38048H209.4592a23.2704 23.2704 0 0 1-23.2704-23.2704v-46.54592a23.2704 23.2704 0 0 1 23.2704-23.2704h605.08672a23.2704 23.2704 0 0 1 23.2704 23.2704v46.54592a23.26528 23.26528 0 0 1-23.2704 23.2704z" p-id="2133"></path><path d="M549.79072 182.656h93.09184v512h-93.09184zM735.95392 416.83456h93.09184v277.81632h-93.09184zM177.4592 275.74784h93.09184v418.90816H177.4592zM363.6224 416.83456h93.09184v277.81632H363.6224z" p-id="2134"></path></svg> -->
<svg t="1598595132839" class="icon" viewBox="0 0 1024 1024" version="1.1" xmlns="http://www.w3.org/2000/svg" p-id="2734" width="20" height="20"><path d="M385.206342 180.185465v460.299159H847.610005c-39.321551 170.54152-193.073004 298.160334-376.047448 298.160334-212.743995 0-385.819094-172.308896-385.819095-384.097691 0-182.131621 128.185804-335.188383 299.46288-374.361802m85.738144-95.060284C210.798049 85.462311 0.005318 295.478623 0.005318 554.547267c0 259.272965 211.119644 469.452733 471.557239 469.452733 260.233273 0 471.209893-209.873287 471.52659-468.870419H470.944486V85.125181z" p-id="2735"></path><path d="M626.601231 98.630791c148.316518 32.819039 265.351511 149.327906 298.334007 296.975273h-298.334007V98.630791M541.261513 2.395662c-0.674259 0-1.31787 0.097052-1.997237 0.102161V482.554809h482.24322c0.005108-0.658935 0.097052-1.297438 0.097052-1.956372 0.005108-264.105153-215.052821-478.202774-480.343035-478.202775z" p-id="2736"></path></svg>