
<!-- <svg t="1598435715723" class="icon" viewBox="0 0 1024 1024" version="1.1" xmlns="http://www.w3.org/2000/svg" p-id="3014" width="40" height="40"><path d="M514.46272 111.23712l417.55136 321.59744v497.33632h-198.49216v-269.2608c0-64.11264-52.15744-116.27008-116.27008-116.27008H396.43136c-64.11264 0-116.27008 52.15744-116.27008 116.27008v269.2608H94.85312V432.96256l419.6096-321.72544M514.56 0c-4.98688 0-9.97376 1.59744-14.14656 4.80256l-489.472 375.28576A23.26016 23.26016 0 0 0 1.83808 398.5408v601.39008a23.25504 23.25504 0 0 0 23.25504 23.25504h324.83328a23.25504 23.25504 0 0 0 23.25504-23.25504v-339.0208a23.25504 23.25504 0 0 1 23.25504-23.25504h220.82048a23.25504 23.25504 0 0 1 23.25504 23.25504v339.0208a23.25504 23.25504 0 0 0 23.25504 23.25504h338.01728a23.25504 23.25504 0 0 0 23.25504-23.25504V398.51008a23.25504 23.25504 0 0 0-9.0624-18.42176L528.75776 4.83328A23.26016 23.26016 0 0 0 514.56 0z" p-id="3015"></path></svg> -->
<svg t="1598595145708" class="icon" viewBox="0 0 1024 1024" version="1.1" xmlns="http://www.w3.org/2000/svg" p-id="2882" width="20" height="20"><path d="M511.401367 116.615741l321.798457 299.244834h-0.992605v511.943718h-141.533197v-249.860175c0-55.401687-45.035616-100.473118-100.396371-100.473118H434.520526c-55.360755 0-100.39637 45.071431-100.39637 100.473118v249.860175H193.839389V415.860575h-4.231362l321.79334-299.244834m0-116.600391a31.348923 31.348923 0 0 0-18.578087 6.104009L13.824839 451.553424C-10.959587 469.768238 1.770316 509.431507 32.402926 509.431507H100.273574v483.536795c0 15.687253 12.566175 28.401807 28.064116 28.401806h271.293281c15.503058 0 28.064116-12.714554 28.064116-28.401806v-315.029301c0-3.811808 3.059679-6.907303 6.830556-6.907303H590.282768c3.770876 0 6.830555 3.095495 6.830555 6.907303v315.029301c0 15.687253 12.566175 28.401807 28.064116 28.401806h272.536595c15.497941 0 28.064116-12.714554 28.064117-28.401806V509.431507h64.626774c30.63261 0 43.362513-39.663269 18.578087-57.878083L529.979454 6.119359a31.302874 31.302874 0 0 0-18.578087-6.104009z" p-id="2883"></path></svg>