
<!-- <svg t="1598435701420" class="icon" viewBox="0 0 1024 1024" version="1.1" xmlns="http://www.w3.org/2000/svg" p-id="2866" width="40" height="40"><path d="M256.68096 964.04992c-157.94688-91.0848-256.3072-260.82816-256.68096-442.9568l85.37088-0.16896c0.31232 151.77728 82.28864 293.21728 213.95456 369.17248l-42.64448 73.95328z m512.04608-0.58368l-42.81344-73.86624c131.47648-76.16 213.16096-217.76896 213.16096-369.5872L1024.45056 518.0928v1.92c0 182.1696-97.98144 352.0768-255.72352 443.45344zM297.75872 150.84032L254.8224 77.056c154.84416-90.04032 356.87424-90.624 512.07168-1.58208l-42.5216 74.0352c-129.2032-74.15808-297.69728-73.66144-426.61376 1.3312z" p-id="2867"></path><path d="M512.2304 413.91104m-106.71616 0a106.71616 106.71616 0 1 0 213.43232 0 106.71616 106.71616 0 1 0-213.43232 0Z" p-id="2868"></path><path d="M725.6576 732.8H298.79296c0-117.87776 95.55968-213.43232 213.43232-213.43232 117.87776 0 213.43232 95.55456 213.43232 213.43232z" p-id="2869"></path><path d="M131.53792 275.49184m-42.68544 0a42.68544 42.68544 0 1 0 85.37088 0 42.68544 42.68544 0 1 0-85.37088 0Z" p-id="2870"></path><path d="M529.59744 974.1312m-42.68544 0a42.68544 42.68544 0 1 0 85.37088 0 42.68544 42.68544 0 1 0-85.37088 0Z" p-id="2871"></path><path d="M913.42336 311.0656m-42.68544 0a42.68544 42.68544 0 1 0 85.37088 0 42.68544 42.68544 0 1 0-85.37088 0Z" p-id="2872"></path></svg> -->
<svg t="1598597183106" class="icon" viewBox="0 0 1026 1024" version="1.1" xmlns="http://www.w3.org/2000/svg" p-id="1165" width="18" height="18"><path d="M733.041539 94.634974h198.930229v198.93023h92.932925V72.855896c0-39.295365-31.858482-71.148736-71.148736-71.148735h-220.714418v92.927813zM95.585669 293.570315v-198.93023h198.930229V1.702049H73.806591C34.511226 1.702049 2.657855 33.560531 2.657855 72.850785v220.714419h92.927814zM931.971768 732.090845v198.930229h-198.930229v92.932925h220.714418c39.295365 0 71.148736-31.853371 71.148736-71.148736v-220.714418h-92.932925zM294.515898 931.026185h-198.930229v-198.930229H2.652744v220.714418c0 39.295365 31.853371 71.148736 71.148735 71.148736h220.714419v-92.932925z" p-id="1166"></path><path d="M341.355482 892.252169c-38.05844 0-71.158958-7.324435-92.452466-36.381947l-1.768496-2.412515-1.334039-2.6783c-13.013267-26.190095-16.18736-83.359535-9.45583-170.097613-57.12855 0.940472-87.770552-9.61428-100.763375-34.0001l-3.649439-6.854199-0.398679-7.753781c-2.39207-46.722025 26.552994-83.226642 52.09396-115.437801 15.103773-19.049665 30.718671-38.74846 32.088488-52.196185 20.455262-200.703836 131.722275-311.234828 313.315111-311.234828 187.521898 0 313.494005 181.986403 313.494006 351.956234a34.848569 34.848569 0 1 1-69.697138 0c0-136.312186-97.962404-282.259097-243.791756-282.259096-145.077997 0-227.159717 83.640654-243.97065 248.601451-3.434767 33.718981-25.489852 61.534456-46.814028 88.429905-13.279053 16.744487-26.875004 33.897875-33.315191 49.74278 10.59053 1.231814 27.258348 1.94739 51.521498 0.439568 14.204191-0.817802 28.045482 4.451907 37.910213 14.623314a48.439409 48.439409 0 0 1 13.437502 38.247557c-8.193349 88.639467-5.203262 138.305577-0.741133 153.618912 12.25169 9.363828 55.651396 5.448603 87.862556 2.540296 26.174761-2.361402 55.850735-5.02948 85.076918-4.089008a34.838346 34.838346 0 0 1 33.693424 35.962823c-0.628685 19.238782-16.565593 34.398778-35.967935 33.698536-24.963393-0.802468-51.184155 1.553823-76.541114 3.843667-20.603488 1.86561-40.838965 3.69033-59.832407 3.69033z" p-id="1167"></path><path d="M696.736261 567.043156H348.24546a34.848569 34.848569 0 1 1 0-69.697138h348.495912a34.85368 34.85368 0 0 1-0.005111 69.697138z" p-id="1168"></path></svg>