<?xml version="1.0" standalone="no"?><!DOCTYPE svg PUBLIC "-//W3C//DTD SVG 1.1//EN" "http://www.w3.org/Graphics/SVG/1.1/DTD/svg11.dtd"><svg t="1614160648046" class="icon" viewBox="0 0 1024 1024" version="1.1" xmlns="http://www.w3.org/2000/svg" p-id="1224" xmlns:xlink="http://www.w3.org/1999/xlink" width="24" height="24"><defs><style type="text/css"></style></defs><path d="M255.641549 740.2496H582.399949v92.9792H255.641549zM665.241549 740.2496h98.9184v92.9792h-98.9184zM255.641549 528.4864H582.399949v92.9792H255.641549zM665.241549 528.4864h98.9184v92.9792h-98.9184zM255.641549 316.8256H582.399949v92.9792H255.641549zM665.241549 316.8256h98.9184v92.9792h-98.9184zM464.742349 66.7648h103.8336v92.9792H464.742349z" p-id="1225"></path><path d="M857.651149 66.7648h-76.9024v92.9792h56.4224v771.2768H186.828749V159.744h65.7408V66.7648H166.451149A72.4992 72.4992 0 0 0 94.054349 139.264v812.2368A72.4992 72.4992 0 0 0 166.451149 1024h691.2a72.4992 72.4992 0 0 0 72.3968-72.4992V139.3664a72.4992 72.4992 0 0 0-72.3968-72.6016z" p-id="1226"></path><path d="M307.353549 0m18.6368 0l65.3312 0q18.6368 0 18.6368 18.6368l0 185.5488q0 18.6368-18.6368 18.6368l-65.3312 0q-18.6368 0-18.6368-18.6368l0-185.5488q0-18.6368 18.6368-18.6368Z" p-id="1227"></path><path d="M623.359949 0m18.6368 0l65.3312 0q18.6368 0 18.6368 18.6368l0 185.5488q0 18.6368-18.6368 18.6368l-65.3312 0q-18.6368 0-18.6368-18.6368l0-185.5488q0-18.6368 18.6368-18.6368Z" p-id="1228"></path></svg>