
<!-- <svg t="1598435681287" class="icon" viewBox="0 0 1024 1024" version="1.1" xmlns="http://www.w3.org/2000/svg" p-id="2573" width="40" height="40"><path d="M868.909661 1023.994889H144.352333c-35.249895 0-63.932281-28.677274-63.932281-63.93228V65.026014c0-35.249895 28.677274-63.932281 63.932281-63.932281h724.557328c35.249895 0 63.932281 28.677274 63.93228 63.932281v895.041705c0 35.249895-28.682385 63.92717-63.93228 63.92717zM165.664797 938.750145h681.9324V86.333367H165.664797v852.416778z" p-id="2574"></path><path d="M756.873565 316.625527H256.383318c-3.025654 0-5.478888-2.453233-5.478888-5.478888v-82.029987c0-3.025654 2.453233-5.478888 5.478888-5.478887h500.490247c3.025654 0 5.478888 2.453233 5.478888 5.478887v82.029987a5.468666 5.468666 0 0 1-5.478888 5.478888zM869.834734 641.653377H606.296153c0.797301 4.799138 0.873964 9.669828 0.618419 14.601849h-0.183992c0 2.26413-0.183992 4.482262-0.342431 6.710615-0.321987 3.102318-0.715526 6.23019-1.129509 9.388728-7.681687 44.689732-46.606321 78.830562-93.452854 78.830561-45.420591 0-83.445707-32.081136-92.727106-74.762283-0.643974-5.105792-1.374833-10.150253-1.952365-15.174269-0.086885-1.666154-0.250434-3.306754-0.250434-4.993352h-0.229991c-0.439538-5.080237-0.654196-10.165585-0.301543-15.332708H153.582623v92.992873h187.171475c29.61257 64.969794 95.124119 110.267723 171.056799 110.267723 75.646469 0 140.953583-44.955499 170.72459-109.536864h187.304358v-92.992873zM756.873565 518.710615H256.383318c-3.025654 0-5.478888-2.453233-5.478888-5.478887v-82.029987c0-3.025654 2.453233-5.478888 5.478888-5.478888h500.490247c3.025654 0 5.478888 2.453233 5.478888 5.478888v82.029987a5.468666 5.468666 0 0 1-5.478888 5.478887z" p-id="2575"></path></svg> -->
<svg t="1598595096869" class="icon" viewBox="0 0 1024 1024" version="1.1" xmlns="http://www.w3.org/2000/svg" p-id="2440" width="20" height="20"><path d="M979.402605 0.419668h-326.691017c-24.571046 0-44.489919 20.067292-44.489919 44.817465v423.107166H415.988165V45.242251c0-24.750172-19.918873-44.817465-44.489919-44.817465H44.807229C20.236183 0.424786 0.31731 20.492078 0.31731 45.242251v933.940284c0 24.750172 19.918873 44.817465 44.489919 44.817465h326.691017c24.571046 0 44.489919-20.067292 44.489919-44.817465v-417.77943h192.233504v417.77943c0 24.750172 19.918873 44.817465 44.489919 44.817465h326.691017c24.571046 0 44.489919-20.067292 44.489919-44.817465V45.242251c0.005118-24.75529-19.918873-44.822583-44.489919-44.822583zM312.775442 920.02471H103.530033V104.400076h209.245409v363.954459h-33.629732v93.053688h33.629732v358.616487z m607.909477 0H711.43951v-358.621605h40.738497V468.349417h-40.738497V104.400076h209.245409v815.624634z" p-id="2441"></path><path d="M148.209314 468.349417H237.3171v93.053688H148.209314zM794.815246 468.349417h89.107786v93.053688h-89.107786z" p-id="2442"></path></svg>