<!-- <svg t="1598435652753" class="icon" viewBox="0 0 1024 1024" version="1.1" xmlns="http://www.w3.org/2000/svg" p-id="2278" width="40" height="40"><path d="M502.832519 1023.642494l-23.87631-15.954993c-8.963192-5.975461-220.458773-147.864579-303.211251-253.155272l-5.434095-9.141945c-41.097895-95.581845-41.695441-133.314075-44.223521-292.246025-0.924409-58.217337-2.124608-133.753297-5.653706-235.892828l-1.322773-38.411491 38.227631-3.871282C390.090374 151.434534 467.449616 47.752618 468.190165 46.710743L501.90811 0l33.437047 46.731172c0.040858 0 63.207102 77.323491 315.78015 128.860569l33.620907 6.874334-0.801835 34.320598a20809.365387 20809.365387 0 0 0-2.584259 134.636848c-3.70785 218.834673-5.75585 339.355132-51.940549 402.061726-48.513596 65.873077-277.470803 234.22787-303.410434 253.19613l-23.176618 16.961117zM243.584319 707.862344c61.424678 75.418494 201.434334 176.373147 257.322773 215.305576 95.244768-70.724948 233.911222-179.703062 262.394255-218.354593 30.653606-41.618833 32.875252-172.966623 35.965127-354.753437 0.520938-31.756768 1.103162-65.454284 1.843711-101.235551-167.956429-38.069307-255.198165-87.767781-297.639262-120.68389-43.544259 39.090753-135.275252 100.193676-299.743442 123.870803 2.625117 84.095681 3.646564 148.610234 4.448399 199.851092 2.390185 149.631681 2.849835 179.217875 35.408439 256z" p-id="2279"></path><path d="M363.926025 457.592658l159.667391 159.672499-58.059012 58.06412-159.672499-159.672499z" p-id="2280"></path><path d="M711.8562 442.633576l-240.928559 240.933666-58.06412-58.069227L653.79208 384.574564z" p-id="2281"></path></svg> -->
<svg t="1598597219672" class="icon" viewBox="0 0 1024 1024" version="1.1" xmlns="http://www.w3.org/2000/svg" p-id="1314" width="18" height="18"><path d="M1009.30217 1023.882254H16.069832a15.327517 15.327517 0 0 1-15.327517-15.327518v-61.765697a15.327517 15.327517 0 0 1 15.327517-15.327517h993.232338a15.327517 15.327517 0 0 1 15.327518 15.327517v61.765697a15.322398 15.322398 0 0 1-15.327518 15.327518zM888.120586 862.185649H134.573964v-286.651195c0-206.476095 169.027602-374.43374 376.773311-374.433741s376.773311 167.957645 376.773311 374.433741v286.651195zM236.562875 760.196737H786.136794v-184.662283c0-150.234243-123.280543-272.444829-274.7844-272.444829S236.567995 425.30533 236.567995 575.534454v184.662283zM525.359104 138.623418H478.255401a22.986157 22.986157 0 0 1-22.986157-22.986156V22.986157a22.986157 22.986157 0 0 1 22.986157-22.986157h47.103703a22.986157 22.986157 0 0 1 22.986156 22.986157v92.645985a22.986157 22.986157 0 0 1-22.986156 22.991276zM326.101378 194.194628l-40.305125 23.103903c-11.1296 6.378786-25.361563 2.595542-31.786424-8.457268l-46.540568-80.031756a23.016873 23.016873 0 0 1 8.5187-31.561171l40.305125-23.103903c11.1296-6.378786 25.361563-2.595542 31.786425 8.457268l46.540568 80.031756a23.016873 23.016873 0 0 1-8.518701 31.561171zM161.978173 329.751519l-23.267725 40.018437c-6.424861 11.052809-20.656824 14.836054-31.786424 8.457268L26.308655 332.019418a23.016873 23.016873 0 0 1-8.518701-31.561171L41.057678 260.439809c6.424861-11.04769 20.656824-14.836054 31.786425-8.457267l80.61025 46.207806a23.016873 23.016873 0 0 1 8.52382 31.561171zM868.51836 363.56523l-23.267724-40.018438a23.016873 23.016873 0 0 1 8.518701-31.56117l80.610249-46.207806c11.1296-6.378786 25.361563-2.595542 31.786425 8.457267l23.267724 40.018438a23.016873 23.016873 0 0 1-8.5187 31.56117l-80.61025 46.207806c-11.1296 6.378786-25.361563 2.590422-31.786425-8.457267zM718.78582 213.714943l-40.305125-23.103903a23.016873 23.016873 0 0 1-8.518701-31.561171l46.540568-80.031756c6.424861-11.04769 20.656824-14.836054 31.786425-8.457267l40.305125 23.103903a23.016873 23.016873 0 0 1 8.5187 31.56117l-46.540568 80.031756c-6.424861 11.052809-20.656824 14.836054-31.786424 8.457268z" p-id="1315"></path></svg>