
<svg t="1598435942168" class="icon" viewBox="0 0 1024 1024" version="1.1" xmlns="http://www.w3.org/2000/svg" p-id="3159" width="40" height="40"><path d="M559.808437 94.640775v30.453285c0 97.891033 79.641549 177.527471 177.532582 177.527471 30.872343 0 61.499384-8.263628 88.569538-23.891443l26.37513-15.224087 46.469495 80.484776-26.375131 15.229198c-55.540577 32.068193-88.70241 89.499643-88.70241 153.636029s33.156723 121.567836 88.70241 153.636028l26.375131 15.229198-46.469495 80.484776-26.37002-15.224087c-27.075265-15.632925-57.702305-23.891442-88.574648-23.891443-97.891033 0-177.532582 79.636438-177.532582 177.527472v30.453284H466.874559v-30.453284c0-97.891033-79.641549-177.527471-177.532582-177.527472-30.872343 0-61.499384 8.263628-88.569538 23.891443l-26.37513 15.229197-46.469494-80.484776 26.37513-15.229197c55.540577-32.068193 88.70241-89.499643 88.70241-153.636029s-33.156723-121.567836-88.6973-153.636029l-26.37513-15.229197 46.469494-80.484776 26.375131 15.229197c27.075265 15.632925 57.702305 23.891442 88.569538 23.891443 97.891033 0 177.532582-79.636438 177.532581-177.527471v-30.453285h92.928768M568.276484 1.701786H458.406512c-46.648361 0-84.465831 37.81747-84.465831 84.465831v38.921332c0 49.305805-40.474914 84.593593-84.593593 84.593593-14.064011 0-28.495975-3.582439-42.105154-11.44234l-33.708654-19.460666a84.072325 84.072325 0 0 0-42.156258-11.32991c-29.190999 0-57.584764 15.14743-73.22791 42.248247L43.21157 304.849695c-23.32418 40.398257-9.48503 92.059988 30.918338 115.384169l33.708653 19.460666c56.312258 32.512804 56.312258 113.789702 0 146.302506l-33.708653 19.460665c-40.398257 23.32418-54.242518 74.985911-30.918338 115.384169l54.937542 95.151822c15.643146 27.095707 44.036911 42.248247 73.22791 42.248247 14.329755 0 28.853708-3.648875 42.156258-11.32991l33.708654-19.460666c13.609179-7.854791 28.046254-11.44234 42.105154-11.44234 44.123789 0 84.593593 35.282678 84.593593 84.593593v38.921332c0 46.648361 37.81747 84.465831 84.465831 84.465831h109.869972c46.648361 0 84.465831-37.81747 84.465832-84.465831v-38.921332c0-49.305805 40.474914-84.593593 84.593593-84.593593 14.064011 0 28.495975 3.582439 42.105153 11.44234l33.708654 19.460666a84.072325 84.072325 0 0 0 42.156258 11.32991c29.190999 0 57.584764-15.14743 73.22791-42.248247l54.937542-95.151822c23.32418-40.398257 9.48503-92.059988-30.918338-115.384169l-33.708653-19.460665c-56.312258-32.512804-56.312258-113.789702 0-146.302506l33.708653-19.460666c40.398257-23.32418 54.242518-74.985911 30.918338-115.384169l-54.937542-95.151822c-15.643146-27.095707-44.036911-42.248247-73.22791-42.248247-14.329755 0-28.853708 3.648875-42.156258 11.32991l-33.708654 19.460666c-13.609179 7.854791-28.046254 11.44234-42.105153 11.44234-44.123789 0-84.593593-35.282678-84.593593-84.593593v-38.921332c0-46.648361-37.81747-84.465831-84.465832-84.465831z" p-id="3160"></path><path d="M516.568759 452.174295c34.403677 0 62.393716 27.990039 62.393716 62.393716s-27.990039 62.393716-62.393716 62.393715-62.393716-27.990039-62.393715-62.393715 27.990039-62.393716 62.393715-62.393716m0-92.933878c-85.784332 0-155.327594 69.543262-155.327594 155.327594s69.543262 155.327594 155.327594 155.327594 155.327594-69.543262 155.327594-155.327594-69.543262-155.327594-155.327594-155.327594z" p-id="3161"></path></svg>
