
<svg t="1598435595135" class="icon" viewBox="0 0 1024 1024" version="1.1" xmlns="http://www.w3.org/2000/svg" p-id="1692" width="40" height="40"><path d="M1023.34744 464.592782H786.5468c-18.841068-117.576247-111.224233-210.624813-228.483135-230.423033V0.706348H465.127705V234.169749c-117.264021 19.798221-209.647186 112.846786-228.488253 230.423033H0.34554v92.935959H237.335563c20.473858 115.426492 112.043187 206.309947 227.792142 225.852245v240.33238h92.93596V783.380986c115.743837-19.537179 207.313166-110.425752 227.787024-225.852245h237.501869V464.592782z m-511.754314 230.044267c-102.487014 0-185.8668-83.379786-185.8668-185.8668s83.379786-185.8668 185.8668-185.8668 185.8668 83.379786 185.8668 185.8668-83.379786 185.8668-185.8668 185.8668z" p-id="1693"></path><path d="M93.537423 283.450325V92.219374h189.552094V0.419714H70.166514C31.506752 0.419714 0.053788 31.304529 0.053788 69.273298v214.182145h93.483635zM740.603463 92.219374h189.552094v191.230951h93.483635V69.26818c0-37.968769-31.447846-68.853584-70.112726-68.853584h-212.923003v91.804778zM930.155557 740.959152v191.230951h-189.552094v91.804779h212.923003c38.659762 0 70.112726-30.884815 70.112726-68.853584v-214.187264h-93.483635zM283.089517 932.190103H93.537423v-191.230951H0.058906v214.187264c0 37.968769 31.447846 68.853584 70.112726 68.853584H283.094635v-91.809897z" p-id="1694"></path></svg>